<?xml version="1.0" standalone="no"?><!DOCTYPE svg PUBLIC "-//W3C//DTD SVG 1.1//EN"
        "http://www.w3.org/Graphics/SVG/1.1/DTD/svg11.dtd">
<svg t="1653534533679" class="icon" viewBox="0 0 1024 1024" version="1.1" xmlns="http://www.w3.org/2000/svg" p-id="4377"
     width="32" height="32">
    <defs>
        <style type="text/css">@font-face { font-family: feedback-iconfont; src:
            url("//at.alicdn.com/t/font_1031158_u69w8yhxdu.woff2?t=1630033759944") format("woff2"),
            url("//at.alicdn.com/t/font_1031158_u69w8yhxdu.woff?t=1630033759944") format("woff"),
            url("//at.alicdn.com/t/font_1031158_u69w8yhxdu.ttf?t=1630033759944") format("truetype"); }
        </style>
    </defs>
    <path d="M830.99648 773.67296c14.25408 8.23296 14.336 21.74976 0.16384 29.98272l-332.34944 193.14688c-14.17216 8.23296-37.51936 8.23296-51.77344 0L112.51712 803.65568c-14.25408-8.23296-14.336-21.74976-0.16384-29.98272l332.34944-193.14688c14.17216-8.23296 37.51936-8.23296 51.77344 0l334.52032 193.14688z"
          fill="#FCF6F0" p-id="4378"></path>
    <path d="M695.1936 580.42368c7.84384 4.52608 7.8848 11.96032 0.1024 16.4864l-182.784 106.20928c-7.7824 4.52608-20.62336 4.52608-28.4672 0l-183.97184-106.20928c-7.84384-4.52608-7.8848-11.96032-0.1024-16.4864l182.784-106.20928c7.7824-4.52608 20.62336-4.52608 28.4672 0l183.97184 106.20928z"
          fill="#F7ECDF" p-id="4379"></path>
    <path d="M529.96096 439.05024l-0.14336 49.80736a30.16704 30.16704 0 0 0-3.74784-1.80224l0.14336-49.80736c1.3312 0.512 2.58048 1.1264 3.74784 1.80224"
          fill="#F7ECDF" p-id="4380"></path>
    <path d="M526.21312 437.248l-0.14336 49.80736a32.07168 32.07168 0 0 0-3.1744-1.06496l0.14336-49.80736c1.08544 0.3072 2.1504 0.65536 3.1744 1.06496"
          fill="#F7ECDF" p-id="4381"></path>
    <path d="M523.03872 436.18304l-0.14336 49.80736a53.71904 53.71904 0 0 0-2.74432-0.67584l0.14336-49.80736c0.94208 0.18432 1.8432 0.4096 2.74432 0.67584"
          fill="#F7ECDF" p-id="4382"></path>
    <path d="M520.2944 435.5072l-0.14336 49.80736a36.864 36.864 0 0 0-2.62144-0.45056l0.14336-49.80736a36.864 36.864 0 0 1 2.62144 0.45056M517.67296 435.05664l-0.14336 49.80736a34.93888 34.93888 0 0 0-2.56-0.28672l0.14336-49.80736c0.86016 0.06144 1.72032 0.16384 2.56 0.28672"
          fill="#F7ECDF" p-id="4383"></path>
    <path d="M515.11296 434.76992l-0.14336 49.80736a55.296 55.296 0 0 0-2.60096-0.14336l0.14336-49.80736a36.864 36.864 0 0 1 2.60096 0.14336M512.512 434.62656l-0.14336 49.80736a39.66976 39.66976 0 0 0-2.70336 0.02048l0.14336-49.80736c0.88064-0.04096 1.80224-0.04096 2.70336-0.02048M509.78816 434.62656l-0.14336 49.80736a45.81376 45.81376 0 0 0-2.92864 0.2048l0.14336-49.80736a46.8992 46.8992 0 0 1 2.92864-0.2048M506.85952 434.83136l-0.14336 49.80736a45.6704 45.6704 0 0 0-3.35872 0.47104l0.14336-49.80736c1.10592-0.2048 2.23232-0.36864 3.35872-0.47104"
          fill="#F7ECDF" p-id="4384"></path>
    <path d="M503.5008 435.3024l-0.14336 49.80736a38.4 38.4 0 0 0-4.97664 1.2288l0.14336-49.80736c1.59744-0.512 3.2768-0.9216 4.97664-1.2288M498.52416 436.5312l-0.14336 49.80736a28.2624 28.2624 0 0 0-5.71392 2.51904l0.14336-49.80736c1.7408-1.024 3.66592-1.8432 5.71392-2.51904"
          fill="#F7ECDF" p-id="4385"></path>
    <path d="M719.40096 548.41344l-0.14336 49.78688-189.44-109.3632 0.14336-49.78688zM492.83072 439.05024l-0.14336 49.78688-188.19072 109.3632 0.14336-49.80736z"
          fill="#F7ECDF" p-id="4386"></path>
    <path d="M727.12192 559.24736l-0.14336 49.80736c0.02048-3.93216-2.56-7.86432-7.72096-10.83392l0.14336-49.80736c5.14048 2.9696 7.72096 6.90176 7.72096 10.83392"
          fill="#F7ECDF" p-id="4387"></path>
    <path d="M304.64 548.39296l-0.14336 49.80736-0.3072 0.18432 0.14336-49.80736 0.3072-0.18432" fill="#F7ECDF"
          p-id="4388"></path>
    <path d="M304.3328 548.57728l-0.14336 49.80736a20.25472 20.25472 0 0 0-3.29728 2.43712l0.14336-49.80736a20.25472 20.25472 0 0 1 3.29728-2.43712"
          fill="#F7ECDF" p-id="4389"></path>
    <path d="M301.03552 551.03488l-0.14336 49.80736a15.83104 15.83104 0 0 0-1.61792 1.7408l0.14336-49.80736a14.19264 14.19264 0 0 1 1.61792-1.7408"
          fill="#F7ECDF" p-id="4390"></path>
    <path d="M299.4176 552.77568l-0.14336 49.80736a12.55424 12.55424 0 0 0-1.06496 1.57696l0.14336-49.80736a11.22304 11.22304 0 0 1 1.06496-1.57696M298.35264 554.33216l-0.14336 49.80736a9.78944 9.78944 0 0 0-0.69632 1.49504l0.14336-49.80736a10.77248 10.77248 0 0 1 0.69632-1.49504"
          fill="#F7ECDF" p-id="4391"></path>
    <path d="M297.65632 555.84768l-0.14336 49.80736a9.58464 9.58464 0 0 0-0.43008 1.49504l0.14336-49.80736a9.58464 9.58464 0 0 1 0.43008-1.49504M297.22624 557.32224l-0.14336 49.80736a7.61856 7.61856 0 0 0-0.16384 1.51552l0.14336-49.80736a7.7824 7.7824 0 0 1 0.16384-1.51552M297.0624 558.83776l-0.14336 49.80736-0.02048 0.22528 0.14336-49.78688 0.02048-0.24576"
          fill="#F7ECDF" p-id="4392"></path>
    <path d="M987.83232 559.22688l-0.14336 49.80736v0.2048l0.14336-49.80736v-0.2048" fill="#F9F2EA" p-id="4393"></path>
    <path d="M987.83232 559.43168l-0.14336 49.80736a9.216 9.216 0 0 1-0.14336 1.29024l0.14336-49.80736a9.216 9.216 0 0 0 0.14336-1.29024M987.68896 560.72192l-0.14336 49.80736a6.92224 6.92224 0 0 1-0.36864 1.26976l0.14336-49.80736a9.0112 9.0112 0 0 0 0.36864-1.26976"
          fill="#F9F2EA" p-id="4394"></path>
    <path d="M987.32032 561.99168l-0.14336 49.80736a12.06272 12.06272 0 0 1-0.59392 1.29024l0.14336-49.80736a12.06272 12.06272 0 0 0 0.59392-1.29024M986.70592 563.28192l-0.14336 49.80736a12.9024 12.9024 0 0 1-0.90112 1.35168l0.14336-49.80736a10.3424 10.3424 0 0 0 0.90112-1.35168M985.8048 564.6336l-0.14336 49.80736a15.83104 15.83104 0 0 1-1.39264 1.51552l0.14336-49.80736a15.83104 15.83104 0 0 0 1.39264-1.51552M984.41216 566.12864l-0.14336 49.80736a16.75264 16.75264 0 0 1-2.8672 2.10944l0.14336-49.80736a15.74912 15.74912 0 0 0 2.8672-2.10944"
          fill="#F9F2EA" p-id="4395"></path>
    <path d="M981.54496 568.25856l-0.14336 49.80736-0.26624 0.16384 0.14336-49.80736 0.26624-0.16384" fill="#F9F2EA"
          p-id="4396"></path>
    <path d="M42.96704 568.4224l-0.14336 49.80736c-4.44416-2.56-6.67648-5.9392-6.656-9.3184l0.14336-49.80736c-0.02048 3.3792 2.21184 6.7584 6.656 9.3184"
          fill="#F7E0CB" p-id="4397"></path>
    <path d="M981.27872 568.4224l-0.14336 49.78688-451.6864 262.49216 0.14336-49.80736z" fill="#F9F2EA"
          p-id="4398"></path>
    <path d="M497.62304 830.91456l-0.14336 49.80736-454.656-262.49216 0.14336-49.80736z" fill="#F7E0CB"
          p-id="4399"></path>
    <path d="M981.15584 549.90848c8.84736 5.12 8.88832 13.39392 0.1024 18.49344L529.59232 830.89408c-8.82688 5.12-23.12192 5.12-31.96928 0.02048l-454.656-262.49216c-8.84736-5.12-8.88832-13.39392-0.08192-18.51392l451.66592-262.49216c8.78592-5.12 23.08096-5.12 31.92832 0l454.67648 262.49216z m-449.80224 129.37216l188.17024-109.3632c10.19904-5.91872 10.11712-15.60576-0.12288-21.504l-189.44-109.3632c-10.24-5.89824-26.95168-5.91872-37.15072 0l-188.17024 109.3632c-10.19904 5.91872-10.11712 15.60576 0.12288 21.504l189.44 109.3632c10.24 5.89824 26.95168 5.91872 37.15072 0"
          fill="#F7ECDF" p-id="4400"></path>
    <path d="M529.59232 830.89408l-0.14336 49.80736a25.43616 25.43616 0 0 1-4.97664 2.19136l0.14336-49.80736c1.78176-0.57344 3.46112-1.31072 4.97664-2.19136M524.61568 833.08544l-0.14336 49.80736a31.88736 31.88736 0 0 1-4.28032 1.06496l0.14336-49.80736c1.47456-0.26624 2.90816-0.6144 4.28032-1.06496"
          fill="#F9F2EA" p-id="4401"></path>
    <path d="M520.33536 834.1504l-0.14336 49.80736a42.5984 42.5984 0 0 1-2.88768 0.4096l0.14336-49.80736c0.98304-0.1024 1.9456-0.22528 2.88768-0.4096M517.44768 834.56l-0.14336 49.80736a33.3824 33.3824 0 0 1-2.49856 0.16384l0.14336-49.80736a33.3824 33.3824 0 0 0 2.49856-0.16384"
          fill="#F9F2EA" p-id="4402"></path>
    <path d="M514.94912 834.72384l-0.14336 49.80736-2.31424 0.02048 0.14336-49.80736c0.77824 0.02048 1.536 0 2.31424-0.02048"
          fill="#F9F2EA" p-id="4403"></path>
    <path d="M512.63488 834.74432l-0.14336 49.80736a39.99744 39.99744 0 0 1-2.21184-0.12288l0.14336-49.80736 2.21184 0.12288"
          fill="#F9F2EA" p-id="4404"></path>
    <path d="M510.42304 834.62144l-0.14336 49.80736a37.70368 37.70368 0 0 1-2.19136-0.24576l0.14336-49.80736c0.7168 0.1024 1.45408 0.18432 2.19136 0.24576M508.2112 834.37568l-0.14336 49.80736c-0.75776-0.1024-1.49504-0.24576-2.23232-0.38912l0.14336-49.80736c0.73728 0.14336 1.49504 0.28672 2.23232 0.38912M505.97888 833.98656l-0.14336 49.80736a30.35136 30.35136 0 0 1-2.3552-0.57344l0.14336-49.80736c0.77824 0.2048 1.55648 0.4096 2.3552 0.57344M503.62368 833.41312l-0.14336 49.80736a28.75392 28.75392 0 0 1-2.74432-0.9216l0.14336-49.80736c0.90112 0.34816 1.80224 0.65536 2.74432 0.9216M500.87936 832.49152l-0.14336 49.80736a26.5216 26.5216 0 0 1-3.25632-1.55648l0.14336-49.80736c1.024 0.57344 2.10944 1.08544 3.25632 1.55648"
          fill="#F9F2EA" p-id="4405"></path>
    <path d="M728.59648 490.8032c8.23296 4.75136 8.27392 12.57472 0.1024 17.32608l-204.24704 122.9824c-8.192 4.75136-21.66784 4.75136-29.9008 0l-193.2288-111.55456c-8.23296-4.75136-8.27392-12.57472-0.1024-17.32608l200.51968-123.76064c8.192-4.75136 21.66784-4.75136 29.9008 0l196.95616 112.3328z"
          fill="#FCC07E" p-id="4406"></path>
    <path d="M735.0272 86.4256l-70.47168-46.30528c0.77824-0.43008 1.536-0.8192 2.29376-1.16736l70.47168 46.30528a81.12128 81.12128 0 0 0-2.29376 1.16736"
          fill="#FFDFB8" p-id="4407"></path>
    <path d="M737.32096 85.27872l-70.47168-46.30528c1.55648-0.7168 3.072-1.26976 4.54656-1.65888l70.47168 46.30528a27.93472 27.93472 0 0 0-4.54656 1.65888"
          fill="#FFDFB8" p-id="4408"></path>
    <path d="M741.86752 83.61984l-70.47168-46.30528a20.6848 20.6848 0 0 1 2.80576-0.57344l70.47168 46.30528a20.6848 20.6848 0 0 0-2.80576 0.57344M744.67328 83.02592L674.2016 36.72064c0.75776-0.1024 1.51552-0.18432 2.2528-0.2048l70.47168 46.30528a29.696 29.696 0 0 0-2.2528 0.2048"
          fill="#FFDFB8" p-id="4409"></path>
    <path d="M746.92608 82.82112l-70.47168-46.2848c0.67584-0.02048 1.3312 0 1.96608 0.04096l70.47168 46.30528c-0.63488-0.06144-1.29024-0.08192-1.96608-0.06144M748.91264 82.86208l-70.47168-46.30528c0.6144 0.04096 1.20832 0.12288 1.78176 0.22528l70.47168 46.30528c-0.59392-0.1024-1.18784-0.16384-1.78176-0.22528"
          fill="#FFDFB8" p-id="4410"></path>
    <path d="M750.6944 83.08736l-70.47168-46.30528a14.66368 14.66368 0 0 1 1.6384 0.38912l70.47168 46.30528a14.66368 14.66368 0 0 0-1.6384-0.38912M752.3328 83.47648l-70.47168-46.30528a19.8656 19.8656 0 0 1 1.55648 0.53248l70.47168 46.30528a19.8656 19.8656 0 0 0-1.55648-0.53248"
          fill="#FFDFB8" p-id="4411"></path>
    <path d="M753.88928 84.02944L683.4176 37.72416c0.512 0.2048 1.00352 0.45056 1.47456 0.69632l70.47168 46.30528a12.14464 12.14464 0 0 0-1.47456-0.69632M755.38432 84.72576l-70.47168-46.30528c0.38912 0.2048 0.75776 0.43008 1.10592 0.65536l70.47168 46.30528-1.10592-0.65536"
          fill="#FFDFB8" p-id="4412"></path>
    <path d="M356.74112 666.86976l-70.47168-46.30528c-5.18144-3.39968-8.47872-10.09664-8.704-19.31264l70.47168 46.30528c0.22528 9.23648 3.50208 15.91296 8.704 19.31264"
          fill="#FFD09C" p-id="4413"></path>
    <path d="M552.18176 187.04384l-70.47168-46.30528 182.84544-100.61824L735.0272 86.4256z" fill="#FFDFB8"
          p-id="4414"></path>
    <path d="M521.17504 132.07552l-70.47168-46.30528c0.77824-0.43008 1.536-0.8192 2.29376-1.14688l70.47168 46.30528a26.60352 26.60352 0 0 0-2.29376 1.14688M523.4688 130.90816l-70.47168-46.30528c1.536-0.7168 3.05152-1.24928 4.52608-1.65888l70.47168 46.30528c-1.45408 0.4096-2.9696 0.96256-4.52608 1.65888"
          fill="#FFDFB8" p-id="4415"></path>
    <path d="M528.01536 129.24928l-70.49216-46.2848a20.6848 20.6848 0 0 1 2.80576-0.57344l70.47168 46.30528a20.2752 20.2752 0 0 0-2.78528 0.55296M530.82112 128.67584l-70.47168-46.30528c0.75776-0.1024 1.51552-0.18432 2.2528-0.2048l70.47168 46.30528a21.4016 21.4016 0 0 0-2.2528 0.2048M533.07392 128.47104l-70.47168-46.30528c0.67584-0.02048 1.3312 0 1.96608 0.04096l70.47168 46.30528c-0.63488-0.04096-1.29024-0.06144-1.96608-0.04096"
          fill="#FFDFB8" p-id="4416"></path>
    <path d="M535.04 128.512l-70.47168-46.30528c0.6144 0.04096 1.20832 0.12288 1.78176 0.22528l70.47168 46.30528a16.2816 16.2816 0 0 0-1.78176-0.22528M536.82176 128.73728l-70.47168-46.30528a14.66368 14.66368 0 0 1 1.6384 0.38912l70.47168 46.30528a12.77952 12.77952 0 0 0-1.6384-0.38912M538.48064 129.1264l-70.47168-46.30528a19.8656 19.8656 0 0 1 1.55648 0.53248l70.47168 46.30528a13.9264 13.9264 0 0 0-1.55648-0.53248"
          fill="#FFDFB8" p-id="4417"></path>
    <path d="M540.03712 129.65888L469.54496 83.3536c0.512 0.2048 1.00352 0.45056 1.49504 0.69632l70.47168 46.30528a16.26112 16.26112 0 0 0-1.47456-0.69632"
          fill="#FFDFB8" p-id="4418"></path>
    <path d="M541.51168 130.37568L471.04 84.0704c0.38912 0.2048 0.75776 0.43008 1.10592 0.67584l70.47168 46.30528a7.59808 7.59808 0 0 0-1.10592-0.67584"
          fill="#FFDFB8" p-id="4419"></path>
    <path d="M348.03712 647.55712l-70.47168-46.30528-8.04864-343.7568 70.49216 46.30528z" fill="#FFD09C"
          p-id="4420"></path>
    <path d="M340.00896 303.80032l-70.49216-46.30528-0.86016-36.70016 70.49216 46.30528z" fill="#FFD09C"
          p-id="4421"></path>
    <path d="M367.67744 216.53504l-70.47168-46.30528 153.4976-84.45952 70.47168 46.30528z" fill="#FFDFB8"
          p-id="4422"></path>
    <path d="M521.17504 132.07552c16.19968-8.9088 29.696-0.7168 30.14656 18.26816l0.86016 36.70016L735.0272 86.4256c16.19968-8.9088 29.696-0.75776 30.14656 18.26816l7.22944 309.3504c0.45056 19.00544-12.32896 41.65632-28.52864 50.56512l-365.69088 201.216c-16.19968 8.9088-29.696 0.7168-30.14656-18.26816l-8.02816-343.77728-0.86016-36.70016c-0.45056-19.00544 12.32896-41.65632 28.52864-50.56512l153.4976-84.43904z"
          fill="#FFAF50" p-id="4423"></path>
    <path d="M339.1488 267.10016l-70.47168-46.30528a46.77632 46.77632 0 0 1 0.59392-8.37632l70.47168 46.30528a46.77632 46.77632 0 0 0-0.59392 8.37632"
          fill="#FFDFB8" p-id="4424"></path>
    <path d="M339.74272 258.72384l-70.47168-46.30528c0.22528-1.45408 0.53248-2.90816 0.88064-4.38272l70.47168 46.30528a69.14048 69.14048 0 0 0-0.88064 4.38272M340.64384 254.34112l-70.47168-46.30528a56.5248 56.5248 0 0 1 0.98304-3.52256l70.47168 46.30528a56.5248 56.5248 0 0 0-0.98304 3.52256"
          fill="#FFDFB8" p-id="4425"></path>
    <path d="M341.62688 250.81856L271.1552 204.51328c0.32768-1.024 0.67584-2.06848 1.04448-3.09248l70.47168 46.30528a49.9712 49.9712 0 0 0-1.04448 3.09248"
          fill="#FFDFB8" p-id="4426"></path>
    <path d="M342.67136 247.74656L272.1792 201.44128c0.34816-0.94208 0.7168-1.88416 1.10592-2.80576l70.47168 46.30528a113.88928 113.88928 0 0 0-1.08544 2.80576M343.77728 244.9408l-70.47168-46.30528a60.0064 60.0064 0 0 1 1.16736-2.62144l70.47168 46.30528a60.0064 60.0064 0 0 0-1.16736 2.62144"
          fill="#FFDFB8" p-id="4427"></path>
    <path d="M344.94464 242.31936l-70.47168-46.30528c0.38912-0.83968 0.8192-1.65888 1.24928-2.49856l70.47168 46.30528-1.24928 2.49856"
          fill="#FFDFB8" p-id="4428"></path>
    <path d="M346.19392 239.8208l-70.47168-46.30528 1.31072-2.39616 70.47168 46.30528a138.38336 138.38336 0 0 0-1.31072 2.39616M347.52512 237.42464l-70.47168-46.30528a70.8608 70.8608 0 0 1 1.41312-2.33472l70.47168 46.30528a70.8608 70.8608 0 0 0-1.41312 2.33472"
          fill="#FFDFB8" p-id="4429"></path>
    <path d="M348.91776 235.1104l-70.47168-46.30528a43.8272 43.8272 0 0 1 1.51552-2.27328l70.47168 46.30528c-0.512 0.73728-1.024 1.49504-1.51552 2.27328M350.43328 232.81664L279.9616 186.51136c0.53248-0.77824 1.08544-1.536 1.65888-2.29376l70.47168 46.30528a59.10528 59.10528 0 0 0-1.65888 2.29376"
          fill="#FFDFB8" p-id="4430"></path>
    <path d="M352.09216 230.54336L281.6 184.23808c0.59392-0.79872 1.20832-1.55648 1.8432-2.31424l70.47168 46.30528a53.4528 53.4528 0 0 0-1.82272 2.31424M353.93536 228.20864l-70.47168-46.30528c0.69632-0.83968 1.41312-1.6384 2.12992-2.41664l70.47168 46.30528a81.5104 81.5104 0 0 0-2.12992 2.41664M356.06528 225.792l-70.47168-46.30528c0.88064-0.94208 1.78176-1.8432 2.70336-2.70336l70.47168 46.30528a56.09472 56.09472 0 0 0-2.70336 2.70336"
          fill="#FFDFB8" p-id="4431"></path>
    <path d="M358.76864 223.08864l-70.47168-46.30528c1.4336-1.3312 2.90816-2.58048 4.44416-3.6864l70.47168 46.30528a46.08 46.08 0 0 0-4.44416 3.6864M363.2128 219.38176l-70.47168-46.30528c1.45408-1.06496 2.94912-2.02752 4.46464-2.8672l70.47168 46.30528a49.8688 49.8688 0 0 0-4.46464 2.8672"
          fill="#FFDFB8" p-id="4432"></path>
    <path d="M453.5296 534.44608c-8.11008 0.77824-16.24064-2.62144-20.39808-9.23648-5.61152-8.94976-1.8432-20.39808 8.43776-25.57952l211.2512-106.3936c10.28096-5.18144 23.16288-2.12992 28.79488 6.81984 5.61152 8.94976 1.8432 20.39808-8.43776 25.57952l-211.2512 106.3936c-2.68288 1.35168-5.5296 2.1504-8.3968 2.41664z"
          fill="#FFFFFF" p-id="4433"></path>
    <path d="M621.2608 283.89376l-63.8976-34.05824a18.90304 18.90304 0 0 0-2.19136-0.98304l-0.49152-0.18432a21.2992 21.2992 0 0 0-3.29728-0.90112l-0.32768-0.04096a20.39808 20.39808 0 0 0-3.52256-0.26624l-0.28672 0.02048a22.09792 22.09792 0 0 0-3.87072 0.49152 20.19328 20.19328 0 0 0-3.2768 1.00352l-0.43008 0.18432a20.11136 20.11136 0 0 0-6.20544 4.1984l-0.1024 0.08192-67.584 68.1984a19.27168 19.27168 0 0 0 0.43008 27.70944 20.2752 20.2752 0 0 0 15.0528 5.46816 20.19328 20.19328 0 0 0 13.312-5.95968l36.88448-37.21216 4.38272 79.31904a19.84512 19.84512 0 0 0 21.11488 18.45248 19.82464 19.82464 0 0 0 18.944-20.66432l-4.79232-86.9376 30.9248 16.4864a20.1728 20.1728 0 0 0 10.71104 2.3552 20.1728 20.1728 0 0 0 16.52736-10.17856 19.39456 19.39456 0 0 0-8.00768-26.58304z"
          fill="#FFFFFF" p-id="4434"></path>
</svg>
